HIERARCHY
ROOT Hips
{
  OFFSET 0.0 0.0 0.0
  CHANNELS 6 XPOSITION YPOSITION ZPOSITION ZROTATION XROTATION YROTATION 
  JOINT RightUpLeg
  {
    OFFSET -0.089458038 -0.086670642 0.001016508
    CHANNELS 3 ZROTATION XROTATION YROTATION 
    JOINT RightLeg
    {
      OFFSET 1.524e-006 -0.44256706 0.04075049
      CHANNELS 3 ZROTATION XROTATION YROTATION 
      JOINT RightFoot
      {
        OFFSET 0.001563116 -0.419119812 -0.0416306
        CHANNELS 3 ZROTATION XROTATION YROTATION 
        End Site
        {
          OFFSET 7.5692e-005 -0.04415155 0.084991702
        }
      }
    }
  }
  JOINT Spine
  {
    OFFSET 0.0 0.11890502 0.0
    CHANNELS 3 ZROTATION XROTATION YROTATION 
    JOINT Spine1
    {
      OFFSET 0.0 0.256575052 0.001270508
      CHANNELS 3 ZROTATION XROTATION YROTATION 
      End Site
      {
        OFFSET -0.0029 0.2150836 0.02525291
      }
      JOINT RightArm
      {
        OFFSET -0.16272758 -0.05365633 0.001021842
        CHANNELS 3 ZROTATION XROTATION YROTATION 
        JOINT RightForeArm
        {
          OFFSET -0.263648698 -0.000263906 -0.014099794
          CHANNELS 3 ZROTATION XROTATION YROTATION 
          End Site
          {
            OFFSET -0.220319092 0.001914652 0.010174732
          }
        }
      }
      JOINT LeftArm
      {
        OFFSET 0.16272758 -0.05365633 0.001020826
        CHANNELS 3 ZROTATION XROTATION YROTATION 
        JOINT LeftForeArm
        {
          OFFSET 0.26260552 -0.000263144 -0.01410081
          CHANNELS 3 ZROTATION XROTATION YROTATION 
          End Site
          {
            OFFSET 0.220897958 0.001915922 0.01017524
          }
        }
      }
    }
  }
  JOINT LeftUpLeg
  {
    OFFSET 0.089458038 -0.086670642 0.001016508
    CHANNELS 3 ZROTATION XROTATION YROTATION 
    JOINT LeftLeg
    {
      OFFSET -3.048e-006 -0.442569346 0.040725598
      CHANNELS 3 ZROTATION XROTATION YROTATION 
      JOINT LeftFoot
      {
        OFFSET -0.002532888 -0.41911778 -0.041605708
        CHANNELS 3 ZROTATION XROTATION YROTATION 
        End Site
        {
          OFFSET -0.00040005 -0.044151042 0.084991194
        }
      }
    }
  }
}
MOTION
Frames: 6
Frame Time: 0.033333
-0.13402056 0.97616696147 0.5501513 -5.01359065033 -1.44334703767 -132.794764485 0.00318653504434 -19.0332903016 -7.25944265369 5.02119179711 3.42477744537 -15.9184815683 3.26929886109 -31.5530150974 -0.310154781425 -6.4650045683 6.6307882005 -2.99887801147 5.29688085701 6.24394421515 -4.66131211795 65.6312945648 5.9475780382 -6.46626729952 5.45197353561 2.3297657865 9.56868350829 -61.9958649074 -3.33951662085 -5.07870198992 3.23337953657 18.3618280646 -14.5243870247 -0.785071334711 12.4113365239 7.45774524341 -5.40547446151 6.04906355021 17.9839273582 -6.45984222595 -42.0173805851 -0.0456294155907 
-0.16510254 0.96839202147 0.53565298 -5.31574199752 -2.15344957572 -133.202130628 -0.487552509973 -18.5431354361 -3.16971235511 5.18031172599 -4.99856636859 -19.1512562063 2.89154735163 -31.851309949 -0.267476771283 -7.13891158606 6.88655146416 -3.48678617153 5.52705567072 5.74451395285 -5.18963279978 64.7783132205 1.49204415202 -9.24581278226 5.33915332467 -1.02906191356 8.280245161 -58.8616686822 -5.45441447446 -7.0561207287 3.50808334169 17.1701922809 -15.2332479625 -2.25130975139 14.4144107338 7.11642532266 -5.56164631 5.8522183521 18.4123782947 -6.96384359235 -43.6641460242 -0.180674898669 
-0.19722084 0.95960870147 0.51948334 -5.64198811766 -2.32272706312 -133.423688304 -0.659524506999 -19.6310889483 -3.21707117927 4.74061274864 -5.07015913081 -18.3352791193 2.92872279063 -33.0738557538 -0.241656281662 -6.58770763608 7.4004194657 -3.79485609107 5.01806314358 5.5149982524 -5.36349953397 64.2760415995 -1.86871862602 -11.80141173 5.05604539867 -4.0582691666 6.9259509835 -56.9532455262 -8.0282086193 -9.50009133355 4.16115486739 16.4464517761 -16.439606219 -3.21943378439 16.5358555372 7.13847658839 -5.71701561125 6.53187254716 18.3896030289 -7.71665039408 -45.4207204145 -0.360881155647 
-0.23020782 0.95296914147 0.5007483 -5.53910113621 -1.84486653822 -133.179263154 -0.598244743457 -20.2394948788 -3.65069043448 4.78633275429 -1.39576452482 -19.9678770385 1.81235462433 -33.0178891837 -0.159928412508 -5.159208149 7.70903558693 -4.07095410855 4.9369379986 5.99380390473 -5.68377350745 64.0328595443 -3.78479991817 -13.7857908585 4.64050693485 -5.45368791309 5.38303857075 -56.6512589573 -10.5505752817 -11.5788824593 5.51789254506 16.3111286531 -19.0920128529 -3.18417549412 18.6318630086 7.59142143697 -5.65941064957 7.76953911015 17.7279677266 -8.35918421855 -46.0820364055 -0.467256229328 
-0.2659888 0.94821680147 0.47715678 -4.95637671698 -1.20035355972 -132.132208815 -0.438420931561 -20.8842818119 -6.24463192983 5.06275734019 4.25630324451 -22.0775790392 -1.32068484431 -31.2172225072 0.13084532028 -3.47356057741 6.92346436775 -4.61865118328 5.47944711777 6.77219830264 -6.35673283647 64.1199581166 -4.35590960072 -15.5595363444 4.27449203827 -5.31646429002 4.03508707767 -57.401135181 -11.6720820981 -12.340032764 7.29940779807 16.4163135663 -23.45460494 -2.23535293538 20.3229529603 9.38127080143 -5.06704968719 9.94657226186 14.6781653188 -10.1155272363 -45.921240092 -0.57687841763 
-0.30396942 0.94727446147 0.45014388 -3.73785090537 -0.342266702364 -131.551847641 0.739685901615 -21.2486536211 -11.2349209629 4.69364452593 8.83304310638 -20.3908860217 -6.6901032708 -27.6870511875 0.873300570119 -0.514820439409 5.29711222967 -4.94637646626 5.58613211128 7.35927355237 -6.63187249303 64.6926626483 -4.34718275339 -17.4888581717 4.05863458172 -4.66271828314 3.4199316396 -58.555805981 -10.8405347412 -11.507497591 9.61633944568 16.8112419343 -29.1986488905 -0.737848527368 21.716330334 14.4395868111 -3.44493845625 12.1776970967 8.28376612351 -14.074686516 -44.1932295528 -0.558587171032 
